P3
4 3
4095
2475 1466 2518
2084 2893 903
2856 2224 3292
2788 3316 788
3238 3483 2421
3785 1558 2641
686 2581 2543
3925 1368 1761
457 954 2357
2126 1726 852
3349 2438 1996
171 1472 2227
