P3
4 3
65535
34043 25583 16286
49237 50921 6999
8103 54140 29932
9127 9168 58138
29684 49326 56463
12850 60411 1665
42933 56766 47515
37484 38833 37965
10392 32978 27124
9266 39364 64336
51259 45481 61357
57487 21945 60461
