P3
20 10
4095
3474 1318 2907
3761 2219 362
2243 3520 2778
948 3950 459
1980 2277 87
1793 392 135
1662 3610 1475
2399 962 3842
889 1822 4086
3905 494 3852
2307 2101 966
634 271 1889
1855 2044 2668
1408 1764 2052
1924 2357 3443
1975 3229 1921
691 2804 425
881 683 3653
1815 2158 2086
3819 607 2598
866 1577 1969
3817 1515 2033
749 3038 1287
3384 3548 1729
2619 89 1701
1779 2207 3521
1229 239 1193
2532 3789 935
409 849 1669
2267 2924 1435
1364 446 2663
3355 3163 2353
29 2258 766
704 1839 708
3986 1156 30
701 116 164
773 4047 1145
2901 933 402
2576 781 3657
2126 1049 3652
683 1984 830
1102 673 941
2896 55 3151
398 3734 3051
3156 2836 562
2117 3341 696
3819 3175 3643
1207 602 2220
1173 561 2923
3108 199 425
1629 3184 2950
2121 2486 732
3595 960 381
1926 3663 454
2790 679 1875
1480 3807 3974
2064 3564 734
3456 491 3653
1436 2860 2726
1870 2515 554
3889 3818 2864
4001 1186 224
3186 2539 3798
3502 2229 2238
1753 2530 469
1506 3998 2717
890 590 279
1165 2702 1368
3146 2028 939
2516 3913 3597
2131 2072 2152
883 2622 1348
508 2595 1373
319 2124 1339
50 3618 3528
426 2763 2938
369 2127 3438
3680 2516 2661
2585 1813 3139
139 1504 2575
2400 550 1690
1779 815 3736
2078 3625 1320
3891 1284 2068
1831 3435 2502
3551 2227 3337
279 2550 4013
3835 1088 264
3661 2087 50
1849 1034 180
3938 931 1247
1471 344 3620
2327 2225 650
676 3047 3441
2723 2503 1719
1426 1211 1717
910 2138 221
608 1849 2011
2866 798 3412
2962 1387 470
1011 812 2166
1917 2220 609
959 3270 3166
1149 3663 2712
2698 2780 3626
3859 3548 624
2679 2779 1420
3965 1877 1491
3571 2638 1373
227 269 2955
1939 3640 727
2887 1477 3285
219 1405 1933
1114 3130 1359
2267 3264 2643
3752 1516 449
3624 2900 2489
982 363 827
4046 1580 3623
1761 1774 2972
3815 1060 1447
1026 281 3577
894 376 2064
392 2620 2909
4068 447 201
796 2470 534
3966 2264 3298
3571 3249 106
83 862 3727
1962 2373 644
1174 810 2491
1249 3987 1473
2137 1799 670
1098 2877 2246
1487 826 2127
3432 738 2829
3558 3394 742
3036 1133 3150
4008 809 2042
3462 2482 2212
853 1875 3561
3840 1200 1303
895 262 796
751 2811 2353
1072 2912 3442
520 528 902
45 3081 1109
1141 239 2720
1492 374 4070
3111 1694 2872
2194 1342 1004
2930 1139 3314
1216 112 119
1347 320 2206
1713 230 1231
3851 3461 679
2651 3031 959
1908 1500 2908
2139 332 229
2001 737 3102
3922 1275 4044
1871 341 1392
2357 1010 1621
1021 4073 1452
2165 156 3948
185 776 315
2091 1130 322
1863 2725 3496
2574 637 1820
1686 2023 457
3052 2090 1342
582 3928 2709
1770 2163 2708
3929 2101 413
2279 3073 1792
3937 2472 3369
2365 2667 1856
571 783 534
2847 1732 1167
2148 591 3573
1835 178 2673
2459 1927 2880
3056 1427 2739
3263 3708 3853
392 2350 2985
3671 2158 362
1280 1826 1493
1735 1646 3447
3326 356 197
3053 2324 3977
1534 613 309
2112 3944 811
3756 2891 2897
2789 1326 3390
3742 4022 2287
3347 1646 2330
3791 960 462
873 250 2392
1880 2348 2304
3047 1318 3936
