P3
20 10
255
108 193 245
121 152 156
144 133 49
192 55 44
23 14 135
228 188 54
84 255 170
98 204 75
254 0 39
240 212 45
151 223 110
173 130 69
245 241 87
16 193 85
121 205 126
30 172 225
207 122 188
156 217 104
120 132 125
113 163 188
152 132 212
107 5 152
168 79 54
103 39 149
200 125 132
250 48 173
217 175 14
249 191 23
216 173 68
219 244 41
32 167 49
148 46 232
23 114 90
105 186 142
91 191 145
225 248 185
96 145 37
133 216 97
33 12 223
168 3 165
124 17 48
81 186 71
252 95 102
38 188 151
77 217 129
12 81 224
118 120 104
166 200 10
112 227 99
162 236 83
108 232 165
97 57 34
99 14 189
190 15 171
60 239 163
136 223 26
211 79 24
170 77 61
79 38 220
193 36 148
253 233 40
79 136 81
229 212 123
50 82 3
13 87 119
209 49 62
16 56 139
97 0 194
221 211 67
47 93 160
102 91 249
223 82 210
35 181 158
35 195 196
21 8 89
223 233 28
8 87 190
25 170 130
178 19 244
7 103 124
79 171 59
138 184 250
63 22 201
48 72 31
224 95 171
84 137 174
64 0 210
28 195 222
33 211 183
182 6 242
189 246 159
125 47 62
59 252 202
75 140 235
222 175 213
53 194 97
186 222 173
244 55 13
111 186 210
234 115 221
0 196 96
78 205 28
171 118 220
46 126 225
203 192 143
25 102 165
4 156 180
199 247 70
50 171 216
147 40 19
138 177 74
128 67 193
65 118 161
57 55 0
209 255 57
101 76 122
141 174 135
245 32 115
250 187 92
78 136 204
28 138 194
173 88 2
122 189 175
109 149 208
193 116 159
65 197 118
71 190 172
41 184 169
12 47 178
242 113 127
171 31 118
89 12 88
253 191 19
182 181 42
206 173 87
5 170 111
179 238 245
176 132 11
146 113 161
144 227 233
94 149 140
204 237 14
30 35 51
102 4 183
22 145 71
42 12 126
178 47 199
168 228 26
48 233 77
91 181 166
148 104 173
84 111 90
173 253 136
55 78 127
143 218 50
120 98 51
45 14 109
209 239 15
108 153 38
78 19 17
233 216 45
71 195 163
210 220 34
134 175 142
3 56 54
209 140 217
18 192 162
26 190 28
34 116 19
232 160 209
249 205 1
100 219 141
52 242 227
249 207 171
103 94 75
119 183 13
78 44 28
231 176 239
114 254 253
1 227 73
214 68 80
229 77 247
72 40 20
182 111 59
90 82 15
1 203 185
232 183 89
25 172 223
16 139 212
179 86 247
3 192 138
73 202 155
225 43 122
163 25 165
50 53 32
160 53 113
210 230 141
46 210 56
48 191 198
118 238 247
