P3
20 10
1023
905 671 273
775 442 632
937 358 800
224 533 175
699 277 37
245 329 969
100 144 602
672 458 731
219 584 914
23 884 223
26 664 772
555 981 421
559 65 378
340 49 1020
721 466 712
127 395 585
1011 886 594
333 770 746
334 888 236
558 491 819
868 702 715
60 224 884
639 254 271
1002 430 578
404 522 461
309 939 77
404 21 55
969 18 831
781 280 637
36 116 431
969 41 427
980 510 166
996 220 625
863 96 761
532 6 206
460 445 764
168 964 878
27 379 288
466 893 878
230 186 108
733 589 304
551 910 942
638 644 375
164 732 728
329 756 964
647 45 104
127 912 692
859 460 790
733 355 669
787 297 876
904 195 950
758 774 873
786 598 871
258 390 157
455 293 500
977 297 244
482 339 519
804 919 709
374 141 988
746 325 852
553 384 673
552 909 180
515 762 96
726 413 625
440 1009 330
871 359 607
803 368 832
530 223 562
596 537 429
577 320 557
914 450 988
37 885 540
607 424 535
24 504 553
222 231 151
196 797 324
254 744 174
899 1018 812
701 959 358
914 349 783
824 430 735
537 33 247
606 214 779
498 547 757
995 579 918
786 735 872
102 61 340
699 933 967
852 515 718
61 289 378
638 190 188
8 525 240
506 671 381
171 303 799
315 181 842
45 148 498
253 165 662
880 806 217
748 513 268
185 230 799
693 737 953
695 564 40
448 1011 699
712 486 506
962 558 115
896 915 208
434 137 748
394 630 608
691 973 224
990 522 12
162 1017 371
730 218 149
355 799 30
239 695 164
990 444 518
342 497 506
191 285 279
367 922 734
770 102 439
1006 466 250
567 602 561
263 320 637
122 787 35
319 437 579
169 167 307
439 90 535
165 453 281
610 539 279
669 577 655
898 781 29
598 592 954
457 726 438
212 716 678
998 447 862
153 168 228
369 540 824
548 476 518
82 382 20
554 303 637
546 489 863
36 722 656
134 20 935
414 232 774
283 649 371
972 97 851
952 488 388
206 177 98
980 123 168
882 640 678
454 46 954
378 328 972
12 376 320
112 188 490
889 24 674
497 69 243
246 526 526
454 507 878
99 1023 576
299 860 655
821 109 170
224 181 669
584 25 541
513 1011 391
297 403 625
807 386 815
279 688 330
648 7 1006
378 498 261
298 813 746
453 315 304
883 849 229
169 239 66
63 538 741
882 936 613
227 371 233
968 750 619
359 831 846
232 427 562
67 618 32
754 676 903
350 78 109
602 216 25
10 513 368
265 265 478
754 780 168
997 749 345
404 147 204
783 650 495
430 111 31
959 258 53
931 79 496
61 169 159
741 948 291
642 383 109
146 547 725
78 684 870
1023 682 942
271 867 574
33 810 820
428 733 197
