P3
20 10
65535
22482 32317 42247
44344 19223 34766
26888 13184 8517
19381 32746 30266
55786 60561 3905
22779 45841 31168
39551 9522 42803
6022 46904 63670
60766 39288 30650
36149 57152 8513
63121 21140 39
16626 24707 4358
24673 43693 16042
2762 54835 62564
28332 43511 9498
11561 10274 23587
17955 20854 1184
5289 8601 51577
61522 33280 33180
27877 56149 47442
27690 43410 55736
59834 2828 25943
49213 53385 42582
28225 52526 20409
19216 27755 65395
309 19488 10770
65268 55035 852
32175 41429 7648
21095 10743 39934
42194 49601 11674
61319 1123 32168
14384 47704 59601
65247 33053 54917
6816 10333 11341
42127 13308 7123
23991 12589 4454
54223 33951 23143
15210 45091 59875
59783 42340 39015
7982 60005 62738
26857 54279 38881
14447 15197 64849
38002 1990 45622
63288 25768 47473
32749 56244 52264
46393 16963 28402
56381 30223 27494
45108 61388 59291
23192 35577 36983
7129 14964 36661
9410 8396 19237
16571 51332 55796
42745 5998 27209
57365 35834 62214
4785 17661 47762
22 912 14192
32585 62287 16189
60118 4056 45006
7190 881 57064
2598 58771 58297
49280 20310 24476
55732 28731 64311
55715 12334 45642
13788 10305 18799
16633 62484 19843
32275 50269 35438
52642 62038 64336
34014 45128 28818
42495 42931 52672
62795 64000 13553
61883 47885 55261
55811 20948 38640
55327 12507 52065
26366 36004 15547
64539 32805 53541
58491 25505 62541
55442 64927 48007
40159 50685 28364
8728 39439 23036
305 37139 35592
40619 29146 61108
55703 37697 6099
52093 33597 20481
38638 63014 4087
23726 9956 56248
7776 22052 40087
518 28794 55436
44086 41216 44156
8873 5229 2226
63303 54555 2853
31583 23317 53690
9995 4056 53650
54737 9305 21089
18497 64796 12959
26046 1771 60771
27665 5633 50187
18864 3268 2864
24029 58545 47075
16053 55050 58884
7643 60437 18807
42504 20000 13728
49615 55780 20732
57924 20358 26356
8692 15939 30042
10829 14954 474
13875 30547 59955
15347 19734 7499
43791 34683 32598
48712 45693 6464
55757 17120 31386
39270 22338 61227
20163 53015 63812
12146 25852 18165
11704 58392 23706
26183 13899 7388
38630 27153 58069
13029 2129 49240
52762 19368 1991
374 46897 28394
38078 48612 48011
14488 25212 26513
34948 31310 15644
31801 59033 10071
51115 20357 62482
44697 11845 22768
62749 18927 38485
1575 42341 62203
36402 43599 57509
19190 8035 8498
43265 34371 55882
36672 58235 41717
21876 2324 1970
53 50063 34711
60222 18123 50252
30521 8621 59003
47010 36040 255
51530 65148 42034
25502 21437 2827
20156 47935 64680
62041 6018 8816
31570 1870 58489
51038 44483 5850
52482 19312 50300
49726 14855 1145
65177 50507 9036
45909 20287 9316
49200 36631 46991
46776 24554 63252
58443 25018 7122
44359 22331 49215
6065 21828 22696
42406 51008 15679
9736 40668 14093
34206 49105 22260
60725 18058 16691
2891 24039 62613
18012 34633 55687
20573 3126 62422
27305 28181 64792
19248 63503 14357
18373 32862 17383
12153 12734 63192
2177 58365 38293
43142 41564 22669
60792 4255 47055
15703 6476 28514
23040 51450 41037
45888 17566 26905
51766 2212 38790
40508 49503 53160
13490 47419 14722
28110 16225 5922
57543 20605 62108
41212 24012 1961
25113 39170 42814
36448 21679 40838
25299 10272 37126
41028 56700 16964
42738 41178 47900
17758 21950 37911
65437 30745 6355
15394 17980 65021
24158 30307 23211
3180 24246 38672
39064 52784 33706
6744 40421 19150
27448 37626 59853
1946 58050 28372
26821 1058 51775
62816 13482 27830
54283 29374 17418
55230 44824 59519
58970 11145 24776
53886 33784 46393
63602 1442 53873
21286 9285 54702
20080 27890 6154
54646 39656 38632
1495 5979 10976
46538 36770 48557
