P3
4 3
255
115 156 146
168 77 187
129 56 89
235 45 50
132 29 45
46 247 89
199 22 219
196 208 169
101 189 2
180 90 67
231 154 224
168 40 79
