P3
4 3
1023
660 86 819
672 600 943
932 201 51
219 339 902
452 1016 377
136 770 177
628 114 994
98 752 847
903 565 98
755 770 284
225 262 66
727 915 17
